<svg xmlns="http://www.w3.org/2000/svg" xmlns:xlink="http://www.w3.org/1999/xlink" width="416" height="812" viewBox="0 0 416 812">
  <defs>
    <linearGradient id="linear-gradient" x1="0.5" y1="1" x2="0.5" gradientUnits="objectBoundingBox">
      <stop offset="0.145" stop-color="#c6dbce"/>
      <stop offset="0.505" stop-color="#9ec0b0"/>
      <stop offset="0.732" stop-color="#8ab3a2"/>
    </linearGradient>
    <clipPath id="clip-iPhone_X_XS_11_Pro_2">
      <rect width="416" height="812"/>
    </clipPath>
  </defs>
  <g id="iPhone_X_XS_11_Pro_2" data-name="iPhone X, XS, 11 Pro – 2" clip-path="url(#clip-iPhone_X_XS_11_Pro_2)">
    <g id="Calque_1" data-name="Calque 1" transform="translate(-439 -210)">
      <path id="Tracé_21" data-name="Tracé 21" d="M555.36,561.752l91.864-53.838,91.864,53.838V669.428l-91.864,53.838L555.36,669.428Z" fill="none" stroke="#c6dbce" stroke-miterlimit="10" stroke-width="10"/>
      <path id="Tracé_22" data-name="Tracé 22" d="M671.826,588.369" fill="#fff"/>
      <path id="Tracé_23" data-name="Tracé 23" d="M569.232,617.754" fill="#181d20"/>
      <path id="Tracé_24" data-name="Tracé 24" d="M759.681,691.559" fill="none" stroke="#000" stroke-miterlimit="10" stroke-width="6"/>
      <path id="Tracé_25" data-name="Tracé 25" d="M689.761,578l-41.02-19.176a3.218,3.218,0,0,0-2.676-.014l-39.274,17.829c-3.242,1.473-6.044-2.64-3.3-4.84l41.938-33.643a3.189,3.189,0,0,1,3.954,0l43.708,35.02C695.852,575.384,693,579.513,689.761,578Z" fill="#8ab3a2"/>
      <path id="Tracé_26" data-name="Tracé 26" d="M671.557,583.654l-23.014-7.074a2.674,2.674,0,0,0-1.5-.005l-22.035,6.578c-1.818.543-3.391-.974-1.851-1.786l23.529-12.413a2.555,2.555,0,0,1,2.219,0l24.523,12.919C674.975,582.69,673.377,584.214,671.557,583.654Z" fill="#8ab3a2"/>
      <path id="Tracé_27" data-name="Tracé 27" d="M662.338,591.252l-13.9-3.538a1.945,1.945,0,0,0-.907,0L634.232,591c-1.1.271-2.047-.487-1.117-.893l14.206-6.206a1.839,1.839,0,0,1,1.34,0l14.8,6.46C664.4,590.769,663.437,591.531,662.338,591.252Z" fill="#8ab3a2"/>
      <path id="Tracé_28" data-name="Tracé 28" d="M608.606,592.7l-20.769,11.77a2.434,2.434,0,0,0-.993,1.069l-9.3,20.063c-.767,1.655-3.005,1.777-2.637.144l5.656-24.972a2.349,2.349,0,0,1,1.459-1.585l26.4-9C610.093,589.623,610.249,591.767,608.606,592.7Z" fill="#8ab3a2"/>
      <path id="Tracé_29" data-name="Tracé 29" d="M691.346,593.177l20.769,11.769a2.444,2.444,0,0,1,.993,1.069l9.3,20.063c.767,1.655,3,1.778,2.636.144l-5.655-24.971a2.351,2.351,0,0,0-1.459-1.586l-26.4-9C689.859,590.1,689.7,592.246,691.346,593.177Z" fill="#8ab3a2"/>
      <path id="Tracé_30" data-name="Tracé 30" d="M698.382,693.886l-20.7,12.127-1.869,1.095-26.58,15.573-1,.585-1.93-1.09h-.545q-14.337-8.246-28.675-16.49l-1.419-.8L597.621,694.7l-.421-52.531-.021-2.587a2.934,2.934,0,0,0,2.706-2.93v0a2.9,2.9,0,0,0-.31-1.312l2.228-1.306,40.938-23.986,2.347-.747c.44,1.152.866,1.438,1.186,1.468.4.038.588-.318,1.5-.538.489-.119.575-.034.919-.148a2.92,2.92,0,0,0,1.468-1.1l2.449,1.384,40.074,22.615.413.235,1.833,1.033a2,2,0,0,0-.131.235,2.942,2.942,0,0,0,2.6,4.236h.028c.092,0,.185-.005.274-.013a2.422,2.422,0,0,0,.242.013l.02,2.556v.026Z" fill="url(#linear-gradient)"/>
      <line id="Ligne_2" data-name="Ligne 2" transform="translate(634.823 613.851)" fill="none" stroke="#000" stroke-miterlimit="10" stroke-width="10"/>
      <path id="Tracé_31" data-name="Tracé 31" d="M645.76,685.39" fill="none" stroke="#000" stroke-miterlimit="10" stroke-width="1"/>
      <path id="Tracé_32" data-name="Tracé 32" d="M601.916,636.649a5.5,5.5,0,1,0-5.5,5.525c.08,0,.162,0,.242-.005a5.491,5.491,0,0,0,4.428-2.6h14.037q.2,32.787.409,65.574l2.033.865q.234-34.68.469-69.361Zm-2.575,0a2.934,2.934,0,0,1-2.706,2.93c-.074.005-.146.007-.221.007a2.939,2.939,0,1,1,2.616-4.252,2.883,2.883,0,0,1,.311,1.312Z" fill="#779494"/>
      <path id="Tracé_33" data-name="Tracé 33" d="M599.341,636.649v0a2.934,2.934,0,0,1-2.706,2.93c-.074.005-.146.007-.221.007a2.939,2.939,0,1,1,2.616-4.252A2.883,2.883,0,0,1,599.341,636.649Z" fill="none"/>
      <path id="Tracé_34" data-name="Tracé 34" d="M697.425,630.258a5.489,5.489,0,0,0-4.744,2.724c-.047.077-.09.155-.131.235a5.488,5.488,0,0,0-.629,2.564,5.4,5.4,0,0,0,.069.868H674.228q.073,35.493.149,70.982,1.381-.807,2.762-1.618V639.571h15.783s2.634,1.727,4.495,1.732h.008a5.312,5.312,0,0,0,.536-.026,5.524,5.524,0,0,0-.536-11.019Zm.274,8.45c-.089.008-.182.013-.274.013H697.4a2.942,2.942,0,0,1-2.6-4.236,2,2,0,0,1,.131-.235,2.931,2.931,0,1,1,2.772,4.458Z" fill="#779494"/>
      <path id="Tracé_35" data-name="Tracé 35" d="M700.351,635.781a2.936,2.936,0,0,1-2.652,2.927c-.089.008-.182.013-.274.013H697.4a2.942,2.942,0,0,1-2.6-4.236,2,2,0,0,1,.131-.235,2.923,2.923,0,0,1,5.424,1.531Z" fill="none"/>
      <path id="Tracé_36" data-name="Tracé 36" d="M661.276,643.839h-2.911v35.8l-9.675,3.34V612.848a5.719,5.719,0,1,0-2.93,0v70.127l-9.675-3.34v-35.8h-2.911v37.2h0l0,.006,12.586,4.342v36.786a1.762,1.762,0,0,0,3.243.047q-.157-18.417-.313-36.833l12.586-4.342,0-.006h0Zm-14.05-33.611a2.924,2.924,0,0,1-2.608-1.6,2.9,2.9,0,0,1-.323-1.337,2.929,2.929,0,1,1,5.858,0,2.943,2.943,0,0,1-2.927,2.938Z" fill="#456364"/>
      <path id="Tracé_37" data-name="Tracé 37" d="M645.76,685.39" fill="none" stroke="#000" stroke-miterlimit="10" stroke-width="1"/>
      <path id="Tracé_38" data-name="Tracé 38" d="M658.288,723.513" fill="#fff" stroke="#000" stroke-miterlimit="10" stroke-width="1"/>
      <path id="Tracé_39" data-name="Tracé 39" d="M672.644,719.74" fill="#fff" stroke="#000" stroke-miterlimit="10" stroke-width="1"/>
      <path id="Tracé_40" data-name="Tracé 40" d="M651.634,723.451" fill="#fff" stroke="#000" stroke-miterlimit="10" stroke-width="1"/>
    </g>
  </g>
</svg>
